<svg xmlns="http://www.w3.org/2000/svg" xmlns:xlink="http://www.w3.org/1999/xlink" width="800" zoomAndPan="magnify" viewBox="0 0 600 449.999984" height="600" preserveAspectRatio="xMidYMid meet" version="1.0"><defs><clipPath id="846dc87262"><path d="M 162 288 L 448 288 L 448 422.457031 L 162 422.457031 Z M 162 288 " clip-rule="nonzero"/></clipPath><clipPath id="89b226aee2"><path d="M 102.207031 27.207031 L 497.457031 27.207031 L 497.457031 422.457031 L 102.207031 422.457031 Z M 102.207031 27.207031 " clip-rule="nonzero"/></clipPath><clipPath id="d6bf741a3b"><path d="M 79.839844 4.839844 L 520.089844 4.839844 L 520.089844 445.089844 L 79.839844 445.089844 Z M 79.839844 4.839844 " clip-rule="nonzero"/></clipPath><clipPath id="47d4cc397f"><path d="M 299.964844 4.839844 C 178.390625 4.839844 79.839844 103.390625 79.839844 224.964844 C 79.839844 346.535156 178.390625 445.089844 299.964844 445.089844 C 421.535156 445.089844 520.089844 346.535156 520.089844 224.964844 C 520.089844 103.390625 421.535156 4.839844 299.964844 4.839844 " clip-rule="nonzero"/></clipPath></defs><path fill="#ffcbd2" d="M 367.523438 221.066406 C 367.523438 222.117188 367.496094 223.164062 367.445312 224.214844 C 367.394531 225.261719 367.316406 226.308594 367.214844 227.355469 C 367.109375 228.398438 366.980469 229.441406 366.828125 230.480469 C 366.671875 231.515625 366.492188 232.550781 366.289062 233.582031 C 366.085938 234.609375 365.855469 235.636719 365.597656 236.652344 C 365.34375 237.671875 365.0625 238.683594 364.757812 239.6875 C 364.453125 240.691406 364.125 241.691406 363.773438 242.679688 C 363.417969 243.667969 363.039062 244.644531 362.636719 245.617188 C 362.238281 246.585938 361.8125 247.546875 361.363281 248.496094 C 360.914062 249.445312 360.441406 250.382812 359.945312 251.308594 C 359.453125 252.234375 358.933594 253.144531 358.394531 254.046875 C 357.855469 254.949219 357.292969 255.835938 356.710938 256.707031 C 356.125 257.582031 355.523438 258.4375 354.898438 259.28125 C 354.273438 260.125 353.625 260.953125 352.960938 261.765625 C 352.292969 262.574219 351.609375 263.371094 350.902344 264.148438 C 350.199219 264.925781 349.472656 265.6875 348.730469 266.429688 C 347.988281 267.171875 347.230469 267.894531 346.453125 268.601562 C 345.671875 269.304688 344.878906 269.992188 344.066406 270.65625 C 343.253906 271.324219 342.429688 271.96875 341.585938 272.59375 C 340.742188 273.21875 339.882812 273.824219 339.011719 274.40625 C 338.136719 274.992188 337.25 275.550781 336.351562 276.089844 C 335.449219 276.632812 334.535156 277.148438 333.609375 277.644531 C 332.683594 278.136719 331.746094 278.609375 330.796875 279.058594 C 329.847656 279.507812 328.890625 279.933594 327.917969 280.335938 C 326.949219 280.738281 325.96875 281.113281 324.980469 281.46875 C 323.992188 281.820312 322.996094 282.152344 321.992188 282.457031 C 320.988281 282.761719 319.976562 283.039062 318.957031 283.296875 C 317.9375 283.550781 316.914062 283.78125 315.882812 283.984375 C 314.855469 284.191406 313.820312 284.371094 312.78125 284.523438 C 311.742188 284.679688 310.703125 284.808594 309.65625 284.910156 C 308.613281 285.011719 307.566406 285.089844 306.515625 285.140625 C 305.46875 285.191406 304.417969 285.21875 303.367188 285.21875 C 302.320312 285.21875 301.269531 285.191406 300.222656 285.140625 C 299.171875 285.089844 298.125 285.011719 297.082031 284.910156 C 296.035156 284.808594 294.996094 284.679688 293.957031 284.523438 C 292.917969 284.371094 291.882812 284.191406 290.851562 283.984375 C 289.824219 283.78125 288.800781 283.550781 287.78125 283.296875 C 286.761719 283.039062 285.75 282.761719 284.746094 282.457031 C 283.742188 282.152344 282.746094 281.820312 281.757812 281.46875 C 280.769531 281.113281 279.789062 280.738281 278.820312 280.335938 C 277.847656 279.933594 276.890625 279.507812 275.941406 279.058594 C 274.992188 278.609375 274.054688 278.136719 273.128906 277.644531 C 272.203125 277.148438 271.289062 276.632812 270.386719 276.089844 C 269.488281 275.550781 268.601562 274.992188 267.726562 274.40625 C 266.855469 273.824219 265.996094 273.21875 265.152344 272.59375 C 264.308594 271.96875 263.480469 271.324219 262.671875 270.65625 C 261.859375 269.992188 261.0625 269.304688 260.285156 268.601562 C 259.507812 267.894531 258.75 267.171875 258.003906 266.429688 C 257.261719 265.6875 256.539062 264.925781 255.835938 264.148438 C 255.128906 263.371094 254.445312 262.574219 253.777344 261.765625 C 253.113281 260.953125 252.464844 260.125 251.839844 259.28125 C 251.214844 258.4375 250.609375 257.582031 250.027344 256.707031 C 249.445312 255.835938 248.882812 254.949219 248.34375 254.046875 C 247.804688 253.144531 247.285156 252.234375 246.789062 251.308594 C 246.296875 250.382812 245.824219 249.445312 245.375 248.496094 C 244.925781 247.546875 244.5 246.585938 244.097656 245.617188 C 243.699219 244.644531 243.320312 243.667969 242.964844 242.679688 C 242.613281 241.691406 242.28125 240.691406 241.976562 239.6875 C 241.671875 238.683594 241.394531 237.671875 241.136719 236.652344 C 240.882812 235.636719 240.652344 234.609375 240.449219 233.582031 C 240.242188 232.550781 240.0625 231.515625 239.910156 230.480469 C 239.757812 229.441406 239.628906 228.398438 239.523438 227.355469 C 239.421875 226.308594 239.34375 225.261719 239.292969 224.214844 C 239.242188 223.164062 239.214844 222.117188 239.214844 221.066406 C 239.214844 220.015625 239.242188 218.964844 239.292969 217.917969 C 239.34375 216.867188 239.421875 215.824219 239.523438 214.777344 C 239.628906 213.734375 239.757812 212.691406 239.910156 211.652344 C 240.0625 210.613281 240.242188 209.578125 240.449219 208.550781 C 240.652344 207.519531 240.882812 206.496094 241.136719 205.476562 C 241.394531 204.460938 241.671875 203.449219 241.976562 202.441406 C 242.28125 201.4375 242.613281 200.441406 242.964844 199.453125 C 243.320312 198.464844 243.699219 197.484375 244.097656 196.515625 C 244.5 195.546875 244.925781 194.585938 245.375 193.636719 C 245.824219 192.6875 246.296875 191.75 246.789062 190.824219 C 247.285156 189.898438 247.804688 188.984375 248.34375 188.085938 C 248.882812 187.183594 249.445312 186.296875 250.027344 185.425781 C 250.609375 184.550781 251.214844 183.691406 251.839844 182.851562 C 252.464844 182.007812 253.113281 181.179688 253.777344 180.367188 C 254.445312 179.554688 255.128906 178.761719 255.835938 177.984375 C 256.539062 177.207031 257.261719 176.445312 258.003906 175.703125 C 258.75 174.960938 259.507812 174.238281 260.285156 173.53125 C 261.0625 172.828125 261.859375 172.140625 262.671875 171.476562 C 263.480469 170.808594 264.308594 170.164062 265.152344 169.539062 C 265.996094 168.910156 266.855469 168.308594 267.726562 167.722656 C 268.601562 167.140625 269.488281 166.578125 270.386719 166.039062 C 271.289062 165.5 272.203125 164.984375 273.128906 164.488281 C 274.054688 163.992188 274.992188 163.519531 275.941406 163.070312 C 276.890625 162.621094 277.847656 162.199219 278.820312 161.796875 C 279.789062 161.394531 280.769531 161.015625 281.757812 160.664062 C 282.746094 160.308594 283.742188 159.980469 284.746094 159.675781 C 285.75 159.371094 286.761719 159.089844 287.78125 158.835938 C 288.800781 158.578125 289.824219 158.351562 290.851562 158.144531 C 291.882812 157.941406 292.917969 157.761719 293.957031 157.605469 C 294.996094 157.453125 296.035156 157.324219 297.082031 157.222656 C 298.125 157.117188 299.171875 157.042969 300.222656 156.988281 C 301.269531 156.9375 302.320312 156.914062 303.367188 156.914062 C 304.417969 156.914062 305.46875 156.9375 306.515625 156.988281 C 307.566406 157.042969 308.613281 157.117188 309.65625 157.222656 C 310.703125 157.324219 311.742188 157.453125 312.78125 157.605469 C 313.820312 157.761719 314.855469 157.941406 315.882812 158.144531 C 316.914062 158.351562 317.9375 158.578125 318.957031 158.835938 C 319.976562 159.089844 320.988281 159.371094 321.992188 159.675781 C 322.996094 159.980469 323.992188 160.308594 324.980469 160.664062 C 325.96875 161.015625 326.949219 161.394531 327.917969 161.796875 C 328.890625 162.199219 329.847656 162.621094 330.796875 163.070312 C 331.746094 163.519531 332.683594 163.992188 333.609375 164.488281 C 334.535156 164.984375 335.449219 165.5 336.351562 166.039062 C 337.25 166.578125 338.136719 167.140625 339.011719 167.722656 C 339.882812 168.308594 340.742188 168.910156 341.585938 169.539062 C 342.429688 170.164062 343.253906 170.808594 344.066406 171.476562 C 344.878906 172.140625 345.671875 172.828125 346.453125 173.53125 C 347.230469 174.238281 347.988281 174.960938 348.730469 175.703125 C 349.472656 176.445312 350.199219 177.207031 350.902344 177.984375 C 351.609375 178.761719 352.292969 179.554688 352.960938 180.367188 C 353.625 181.179688 354.273438 182.007812 354.898438 182.851562 C 355.523438 183.691406 356.125 184.550781 356.710938 185.425781 C 357.292969 186.296875 357.855469 187.183594 358.394531 188.085938 C 358.933594 188.984375 359.453125 189.898438 359.945312 190.824219 C 360.441406 191.75 360.914062 192.6875 361.363281 193.636719 C 361.8125 194.585938 362.238281 195.546875 362.636719 196.515625 C 363.039062 197.484375 363.417969 198.464844 363.773438 199.453125 C 364.125 200.441406 364.453125 201.4375 364.757812 202.441406 C 365.0625 203.449219 365.34375 204.460938 365.597656 205.476562 C 365.855469 206.496094 366.085938 207.519531 366.289062 208.550781 C 366.492188 209.578125 366.671875 210.613281 366.828125 211.652344 C 366.980469 212.691406 367.109375 213.734375 367.214844 214.777344 C 367.316406 215.824219 367.394531 216.867188 367.445312 217.917969 C 367.496094 218.964844 367.523438 220.015625 367.523438 221.066406 Z M 367.523438 221.066406 " fill-opacity="1" fill-rule="nonzero"/><path fill="#ffcbd2" d="M 250.269531 299.585938 L 263.640625 265.410156 L 332.738281 255.007812 L 340.160156 330.660156 L 270.324219 332.144531 Z M 250.269531 299.585938 " fill-opacity="1" fill-rule="nonzero"/><path fill="#2f2e41" d="M 368.144531 232.902344 C 367.3125 236.238281 365.628906 244.179688 363 244.21875 C 360.851562 244.25 358.796875 209.796875 360.941406 204.097656 C 363.40625 197.546875 356.929688 189.265625 352.054688 185.015625 C 343.28125 177.371094 323.816406 193.785156 304.019531 186.347656 C 303.496094 186.152344 303.601562 186.175781 297.347656 183.679688 C 278.113281 176.003906 277.101562 175.785156 276 175.675781 C 266.675781 174.753906 255.296875 182.382812 250.652344 191.6875 C 245.820312 201.355469 249.855469 209.652344 245.3125 233.046875 C 244.785156 235.773438 243.953125 239.660156 242.644531 239.71875 C 240.253906 239.824219 237.917969 227.050781 237.308594 223.707031 C 234.746094 209.695312 232.277344 196.183594 237.308594 181.011719 C 237.855469 179.355469 241.238281 173.214844 247.980469 161 C 257.695312 143.398438 262.582031 134.566406 263.992188 132.980469 C 274.117188 121.59375 292.550781 111.207031 308.023438 115.632812 C 315.84375 117.871094 314.441406 121.472656 324.035156 124.972656 C 341.128906 131.214844 355.984375 123.582031 358.722656 128.976562 C 360.175781 131.832031 356.113281 134.191406 356.054688 139.648438 C 355.953125 149.019531 367.804688 151.726562 374.734375 161 C 378.460938 165.980469 384.835938 166.035156 368.144531 232.902344 Z M 368.144531 232.902344 " fill-opacity="1" fill-rule="nonzero"/><g clip-path="url(#846dc87262)"><path fill="#3a93d6" d="M 447.621094 356.046875 C 445.035156 358.949219 442.355469 361.796875 439.574219 364.574219 C 402.25 401.902344 352.621094 422.457031 299.832031 422.457031 C 254.207031 422.457031 210.945312 407.101562 175.945312 378.832031 C 175.921875 378.816406 175.910156 378.800781 175.886719 378.78125 C 171.242188 375.035156 166.75 371.054688 162.410156 366.847656 C 162.492188 366.195312 162.582031 365.546875 162.675781 364.910156 C 163.285156 360.601562 163.960938 356.492188 164.71875 352.710938 C 170.921875 321.714844 252.550781 289.171875 254.675781 288.324219 C 254.707031 288.320312 254.722656 288.3125 254.722656 288.3125 C 254.722656 288.3125 265.226562 327.035156 310.242188 326.535156 C 340.902344 326.203125 334.960938 288.3125 334.960938 288.3125 C 334.960938 288.3125 335.332031 288.386719 336.03125 288.535156 C 344.886719 290.414062 406.371094 303.921875 430.628906 322.351562 C 438.023438 327.96875 443.328125 339.933594 447.136719 354.195312 C 447.300781 354.804688 447.457031 355.429688 447.621094 356.046875 Z M 447.621094 356.046875 " fill-opacity="1" fill-rule="nonzero"/></g><g clip-path="url(#89b226aee2)"><path fill="#eaeaea" d="M 439.574219 85.089844 C 402.25 47.765625 352.621094 27.207031 299.832031 27.207031 C 247.046875 27.207031 197.417969 47.765625 160.089844 85.089844 C 122.765625 122.417969 102.207031 172.046875 102.207031 224.832031 C 102.207031 273.015625 119.332031 318.5625 150.714844 354.53125 C 153.710938 357.96875 156.835938 361.320312 160.089844 364.574219 C 160.855469 365.339844 161.628906 366.105469 162.410156 366.847656 C 166.75 371.054688 171.242188 375.035156 175.886719 378.78125 C 175.910156 378.800781 175.921875 378.816406 175.945312 378.832031 C 210.945312 407.101562 254.207031 422.457031 299.832031 422.457031 C 352.621094 422.457031 402.25 401.902344 439.574219 364.574219 C 442.355469 361.796875 445.035156 358.949219 447.621094 356.046875 C 479.84375 319.851562 497.457031 273.699219 497.457031 224.832031 C 497.457031 172.046875 476.902344 122.417969 439.574219 85.089844 Z M 447.136719 354.195312 C 441.292969 360.84375 435.003906 367.101562 428.320312 372.902344 C 415.636719 383.9375 401.519531 393.355469 386.296875 400.859375 C 380.957031 403.5 375.480469 405.898438 369.878906 408.046875 C 348.117188 416.394531 324.5 420.972656 299.832031 420.972656 C 276.027344 420.972656 253.207031 416.707031 232.082031 408.90625 C 223.414062 405.710938 215.03125 401.914062 206.988281 397.570312 C 205.804688 396.929688 204.632812 396.285156 203.464844 395.625 C 197.328125 392.144531 191.390625 388.351562 185.695312 384.25 C 177.527344 378.394531 169.832031 371.921875 162.675781 364.910156 C 158.664062 360.980469 154.832031 356.886719 151.167969 352.628906 C 121.59375 318.273438 103.695312 273.609375 103.695312 224.832031 C 103.695312 116.683594 191.683594 28.695312 299.832031 28.695312 C 407.984375 28.695312 495.972656 116.683594 495.972656 224.832031 C 495.972656 274.359375 477.523438 319.648438 447.136719 354.195312 Z M 447.136719 354.195312 " fill-opacity="1" fill-rule="nonzero"/></g><g clip-path="url(#d6bf741a3b)"><g clip-path="url(#47d4cc397f)"><path stroke-linecap="butt" transform="matrix(0.74988, 0, 0, 0.74988, 79.838714, 4.838709)" fill="none" stroke-linejoin="miter" d="M 293.548403 0.00151262 C 131.423544 0.00151262 0.00150624 131.42355 0.00150624 293.548409 C 0.00150624 455.668059 131.423544 587.095305 293.548403 587.095305 C 455.668053 587.095305 587.095299 455.668059 587.095299 293.548409 C 587.095299 131.42355 455.668053 0.00151262 293.548403 0.00151262 " stroke="#eaeaea" stroke-width="50" stroke-opacity="1" stroke-miterlimit="4"/></g></g></svg>