<svg xmlns="http://www.w3.org/2000/svg" xmlns:xlink="http://www.w3.org/1999/xlink" width="800" zoomAndPan="magnify" viewBox="0 0 600 449.999984" height="600" preserveAspectRatio="xMidYMid meet" version="1.0"><defs><clipPath id="689e0e524e"><path d="M 102.226562 27.226562 L 497.476562 27.226562 L 497.476562 422.476562 L 102.226562 422.476562 Z M 102.226562 27.226562 " clip-rule="nonzero"/></clipPath><clipPath id="c8b01a3f9f"><path d="M 79.839844 4.839844 L 520.089844 4.839844 L 520.089844 445.089844 L 79.839844 445.089844 Z M 79.839844 4.839844 " clip-rule="nonzero"/></clipPath><clipPath id="6a182b5a02"><path d="M 299.964844 4.839844 C 178.390625 4.839844 79.839844 103.390625 79.839844 224.964844 C 79.839844 346.535156 178.390625 445.089844 299.964844 445.089844 C 421.535156 445.089844 520.089844 346.535156 520.089844 224.964844 C 520.089844 103.390625 421.535156 4.839844 299.964844 4.839844 " clip-rule="nonzero"/></clipPath></defs><path fill="#ffcbd2" d="M 322.921875 314.910156 L 332.328125 256.121094 L 268.835938 230.253906 L 259.429688 319.613281 Z M 322.921875 314.910156 " fill-opacity="1" fill-rule="nonzero"/><path fill="#3a93d6" d="M 386.734375 401.792969 C 381.285156 404.453125 375.730469 406.851562 370.089844 408.980469 C 358.816406 413.246094 347.175781 416.464844 335.234375 418.617188 C 323.5625 420.722656 311.578125 421.792969 299.597656 421.792969 C 283.410156 421.792969 267.316406 419.851562 251.75 416.007812 C 245.65625 414.515625 239.507812 412.6875 233.464844 410.558594 C 232.832031 410.328125 232.1875 410.101562 231.554688 409.871094 C 224.058594 407.152344 216.683594 403.964844 209.59375 400.363281 C 208.636719 399.882812 207.683594 399.394531 206.726562 398.875 C 205.667969 398.335938 204.621094 397.765625 203.558594 397.175781 C 202.210938 396.4375 200.871094 395.667969 199.53125 394.890625 C 195.046875 392.292969 190.632812 389.488281 186.417969 386.574219 L 186.136719 386.386719 C 185.886719 386.210938 185.636719 386.042969 185.398438 385.867188 C 185.554688 385.046875 185.699219 384.296875 185.835938 383.632812 C 186.355469 381.027344 186.695312 379.59375 186.695312 379.59375 L 215.128906 320.867188 L 223.050781 304.5 L 226.914062 302.910156 L 256.089844 290.917969 L 327.40625 290.917969 L 349.90625 300.222656 C 349.90625 300.222656 350.019531 300.648438 350.25 301.46875 C 352.492188 309.515625 365.574219 355.203125 385.875 399.90625 C 386.152344 400.527344 386.445312 401.160156 386.734375 401.792969 Z M 386.734375 401.792969 " fill-opacity="1" fill-rule="nonzero"/><path fill="#ffcbd2" d="M 371.625 210.273438 C 371.625 211.332031 371.601562 212.390625 371.546875 213.449219 C 371.496094 214.507812 371.417969 215.5625 371.3125 216.617188 C 371.210938 217.671875 371.082031 218.722656 370.925781 219.773438 C 370.769531 220.820312 370.589844 221.863281 370.382812 222.902344 C 370.175781 223.941406 369.941406 224.976562 369.683594 226.003906 C 369.429688 227.03125 369.144531 228.054688 368.835938 229.066406 C 368.53125 230.082031 368.199219 231.085938 367.839844 232.085938 C 367.484375 233.082031 367.101562 234.070312 366.695312 235.050781 C 366.292969 236.027344 365.863281 236.996094 365.410156 237.957031 C 364.957031 238.914062 364.480469 239.859375 363.980469 240.792969 C 363.480469 241.726562 362.957031 242.648438 362.414062 243.558594 C 361.871094 244.46875 361.300781 245.363281 360.714844 246.242188 C 360.125 247.125 359.515625 247.992188 358.882812 248.84375 C 358.253906 249.695312 357.601562 250.527344 356.929688 251.347656 C 356.257812 252.167969 355.5625 252.96875 354.851562 253.753906 C 354.140625 254.539062 353.410156 255.304688 352.660156 256.054688 C 351.914062 256.804688 351.144531 257.535156 350.359375 258.246094 C 349.574219 258.957031 348.773438 259.652344 347.953125 260.324219 C 347.132812 260.996094 346.300781 261.648438 345.449219 262.277344 C 344.597656 262.910156 343.730469 263.519531 342.851562 264.109375 C 341.96875 264.695312 341.074219 265.261719 340.164062 265.808594 C 339.257812 266.351562 338.335938 266.875 337.398438 267.375 C 336.464844 267.875 335.519531 268.351562 334.5625 268.804688 C 333.601562 269.257812 332.632812 269.6875 331.65625 270.089844 C 330.675781 270.496094 329.6875 270.878906 328.691406 271.234375 C 327.691406 271.59375 326.6875 271.925781 325.671875 272.230469 C 324.660156 272.539062 323.636719 272.820312 322.609375 273.078125 C 321.582031 273.335938 320.546875 273.570312 319.507812 273.777344 C 318.46875 273.984375 317.425781 274.164062 316.378906 274.320312 C 315.328125 274.476562 314.277344 274.605469 313.222656 274.707031 C 312.167969 274.8125 311.113281 274.890625 310.054688 274.941406 C 308.996094 274.992188 307.9375 275.019531 306.878906 275.019531 C 305.816406 275.019531 304.757812 274.992188 303.699219 274.941406 C 302.640625 274.890625 301.585938 274.8125 300.53125 274.707031 C 299.476562 274.605469 298.425781 274.476562 297.378906 274.320312 C 296.328125 274.164062 295.285156 273.984375 294.246094 273.777344 C 293.207031 273.570312 292.171875 273.335938 291.144531 273.078125 C 290.117188 272.820312 289.097656 272.539062 288.082031 272.230469 C 287.066406 271.925781 286.0625 271.59375 285.066406 271.234375 C 284.066406 270.878906 283.078125 270.496094 282.097656 270.089844 C 281.121094 269.6875 280.152344 269.257812 279.195312 268.804688 C 278.234375 268.351562 277.289062 267.875 276.355469 267.375 C 275.421875 266.875 274.5 266.351562 273.589844 265.808594 C 272.679688 265.261719 271.785156 264.695312 270.90625 264.109375 C 270.023438 263.519531 269.160156 262.910156 268.308594 262.277344 C 267.457031 261.648438 266.621094 260.996094 265.800781 260.324219 C 264.984375 259.652344 264.179688 258.957031 263.394531 258.246094 C 262.609375 257.535156 261.84375 256.804688 261.09375 256.054688 C 260.34375 255.304688 259.613281 254.539062 258.902344 253.753906 C 258.191406 252.96875 257.5 252.167969 256.828125 251.347656 C 256.15625 250.527344 255.503906 249.695312 254.871094 248.84375 C 254.238281 247.992188 253.628906 247.125 253.042969 246.242188 C 252.453125 245.363281 251.886719 244.46875 251.339844 243.558594 C 250.796875 242.648438 250.273438 241.726562 249.773438 240.792969 C 249.273438 239.859375 248.800781 238.914062 248.347656 237.957031 C 247.894531 236.996094 247.464844 236.027344 247.058594 235.050781 C 246.652344 234.070312 246.269531 233.082031 245.914062 232.085938 C 245.558594 231.085938 245.226562 230.082031 244.917969 229.066406 C 244.609375 228.054688 244.328125 227.03125 244.070312 226.003906 C 243.8125 224.976562 243.582031 223.941406 243.375 222.902344 C 243.167969 221.863281 242.984375 220.820312 242.832031 219.773438 C 242.675781 218.722656 242.546875 217.671875 242.441406 216.617188 C 242.335938 215.5625 242.257812 214.507812 242.207031 213.449219 C 242.15625 212.390625 242.128906 211.332031 242.128906 210.273438 C 242.128906 209.210938 242.15625 208.152344 242.207031 207.09375 C 242.257812 206.035156 242.335938 204.980469 242.441406 203.925781 C 242.546875 202.871094 242.675781 201.820312 242.832031 200.769531 C 242.984375 199.722656 243.167969 198.679688 243.375 197.640625 C 243.582031 196.601562 243.8125 195.566406 244.070312 194.539062 C 244.328125 193.511719 244.609375 192.492188 244.917969 191.476562 C 245.226562 190.460938 245.558594 189.457031 245.914062 188.457031 C 246.269531 187.460938 246.652344 186.472656 247.058594 185.492188 C 247.464844 184.515625 247.894531 183.546875 248.347656 182.589844 C 248.800781 181.628906 249.273438 180.683594 249.773438 179.75 C 250.273438 178.816406 250.796875 177.894531 251.339844 176.984375 C 251.886719 176.074219 252.453125 175.179688 253.042969 174.300781 C 253.628906 173.417969 254.238281 172.550781 254.871094 171.703125 C 255.503906 170.851562 256.15625 170.015625 256.828125 169.195312 C 257.5 168.375 258.191406 167.574219 258.902344 166.789062 C 259.613281 166.003906 260.34375 165.238281 261.09375 164.488281 C 261.84375 163.738281 262.609375 163.007812 263.394531 162.296875 C 264.179688 161.585938 264.984375 160.894531 265.800781 160.222656 C 266.621094 159.546875 267.457031 158.898438 268.308594 158.265625 C 269.160156 157.632812 270.023438 157.023438 270.90625 156.4375 C 271.785156 155.847656 272.679688 155.28125 273.589844 154.734375 C 274.5 154.191406 275.421875 153.667969 276.355469 153.167969 C 277.289062 152.667969 278.234375 152.191406 279.195312 151.738281 C 280.152344 151.285156 281.121094 150.859375 282.097656 150.453125 C 283.078125 150.046875 284.066406 149.664062 285.066406 149.308594 C 286.0625 148.953125 287.066406 148.621094 288.082031 148.3125 C 289.097656 148.003906 290.117188 147.722656 291.144531 147.464844 C 292.171875 147.207031 293.207031 146.972656 294.246094 146.769531 C 295.285156 146.5625 296.328125 146.378906 297.378906 146.222656 C 298.425781 146.070312 299.476562 145.9375 300.53125 145.835938 C 301.585938 145.730469 302.640625 145.652344 303.699219 145.601562 C 304.757812 145.550781 305.816406 145.523438 306.878906 145.523438 C 307.9375 145.523438 308.996094 145.550781 310.054688 145.601562 C 311.113281 145.652344 312.167969 145.730469 313.222656 145.835938 C 314.277344 145.9375 315.328125 146.070312 316.378906 146.222656 C 317.425781 146.378906 318.46875 146.5625 319.507812 146.769531 C 320.546875 146.972656 321.582031 147.207031 322.609375 147.464844 C 323.636719 147.722656 324.660156 148.003906 325.671875 148.3125 C 326.6875 148.621094 327.691406 148.953125 328.691406 149.308594 C 329.6875 149.664062 330.675781 150.046875 331.65625 150.453125 C 332.632812 150.859375 333.601562 151.285156 334.5625 151.738281 C 335.519531 152.191406 336.464844 152.667969 337.398438 153.167969 C 338.335938 153.667969 339.257812 154.191406 340.164062 154.734375 C 341.074219 155.28125 341.96875 155.847656 342.851562 156.4375 C 343.730469 157.023438 344.597656 157.632812 345.449219 158.265625 C 346.300781 158.898438 347.132812 159.546875 347.953125 160.222656 C 348.773438 160.894531 349.574219 161.585938 350.359375 162.296875 C 351.144531 163.007812 351.914062 163.738281 352.660156 164.488281 C 353.410156 165.238281 354.140625 166.003906 354.851562 166.789062 C 355.5625 167.574219 356.257812 168.375 356.929688 169.195312 C 357.601562 170.015625 358.253906 170.851562 358.882812 171.703125 C 359.515625 172.550781 360.125 173.417969 360.714844 174.300781 C 361.300781 175.179688 361.867188 176.074219 362.414062 176.984375 C 362.957031 177.894531 363.480469 178.816406 363.980469 179.75 C 364.480469 180.683594 364.957031 181.628906 365.410156 182.589844 C 365.863281 183.546875 366.292969 184.515625 366.695312 185.492188 C 367.101562 186.472656 367.484375 187.460938 367.839844 188.457031 C 368.199219 189.457031 368.53125 190.460938 368.835938 191.476562 C 369.144531 192.492188 369.429688 193.511719 369.683594 194.539062 C 369.941406 195.566406 370.175781 196.601562 370.382812 197.640625 C 370.589844 198.679688 370.769531 199.722656 370.925781 200.769531 C 371.082031 201.820312 371.210938 202.871094 371.3125 203.925781 C 371.417969 204.980469 371.496094 206.035156 371.546875 207.09375 C 371.601562 208.152344 371.625 209.210938 371.625 210.273438 Z M 371.625 210.273438 " fill-opacity="1" fill-rule="nonzero"/><path fill="#3a93d6" d="M 227.027344 302.355469 L 226.914062 302.910156 L 207.175781 396.769531 L 207.003906 397.585938 L 206.726562 398.878906 C 205.667969 398.335938 204.617188 397.765625 203.5625 397.175781 C 202.210938 396.433594 200.875 395.667969 199.527344 394.890625 C 195.050781 392.296875 190.636719 389.488281 186.417969 386.574219 L 186.132812 386.382812 C 185.890625 386.210938 185.636719 386.039062 185.398438 385.871094 C 182.175781 383.617188 179.03125 381.269531 175.964844 378.847656 C 175.941406 378.835938 175.925781 378.820312 175.902344 378.796875 C 170.429688 374.382812 165.152344 369.636719 160.109375 364.589844 C 156.855469 361.335938 153.726562 357.988281 150.730469 354.546875 L 151.183594 352.644531 L 151.230469 352.453125 L 151.792969 350.03125 C 156.816406 328.820312 173.808594 312.539062 195.210938 308.4375 L 223.652344 302.992188 Z M 227.027344 302.355469 " fill-opacity="1" fill-rule="nonzero"/><path fill="#3a93d6" d="M 428.675781 374.351562 C 420.296875 381.484375 411.3125 387.945312 401.832031 393.613281 C 400.910156 394.171875 399.964844 394.722656 399.019531 395.273438 C 394.992188 397.601562 390.890625 399.769531 386.734375 401.792969 C 381.285156 404.453125 375.730469 406.851562 370.089844 408.980469 L 369.65625 406.921875 L 347.363281 300.917969 L 350.25 301.46875 L 379.175781 307.015625 C 400.578125 311.117188 417.574219 327.398438 422.589844 348.609375 L 428.125 372.046875 Z M 428.675781 374.351562 " fill-opacity="1" fill-rule="nonzero"/><path fill="#2f2e41" d="M 381.441406 227.578125 C 379.757812 233.851562 371.296875 261.875 349.625 267.773438 C 345.367188 268.9375 335.210938 270.277344 337.902344 267.773438 C 338.515625 267.203125 339.105469 266.644531 339.699219 266.09375 C 363.21875 243.976562 372.8125 230.457031 368.429688 200.449219 C 365.648438 181.339844 333.957031 163.992188 316.128906 162.265625 C 308.609375 161.542969 299.015625 164.085938 292.683594 170.636719 C 282.226562 181.433594 283.949219 214.582031 278.15625 234.050781 C 276.597656 239.261719 274.511719 243.496094 271.507812 246.0625 C 269.640625 247.660156 268.445312 245.625 267.5625 242.292969 C 265.683594 235.210938 265.195312 222.242188 262.527344 225.90625 C 254.8125 236.53125 262.164062 250.609375 264.386719 256.042969 C 264.84375 257.152344 265.3125 258.222656 265.777344 259.238281 L 265.777344 259.25 C 266.046875 259.832031 266.328125 260.414062 266.597656 260.964844 L 266.597656 260.972656 C 274.011719 276.089844 282.921875 281.5 290.769531 290.917969 C 293.855469 294.605469 296.773438 298.894531 299.378906 304.625 C 301.164062 308.550781 302.453125 312.496094 303.335938 316.367188 C 307.832031 335.785156 302.496094 353.429688 301.050781 358.226562 C 298.027344 368.214844 292.835938 385.378906 277.605469 395.066406 C 258.476562 407.234375 241.023438 396.511719 232.675781 408.066406 C 232.570312 408.203125 232.476562 408.335938 232.382812 408.472656 C 232.074219 408.9375 231.792969 409.40625 231.554688 409.871094 C 224.058594 407.152344 216.683594 403.964844 209.59375 400.363281 C 208.636719 399.882812 207.683594 399.394531 206.726562 398.875 C 205.667969 398.335938 204.621094 397.765625 203.558594 397.175781 C 203.519531 396.363281 203.476562 395.554688 203.445312 394.734375 C 202.832031 380.683594 203.757812 365.246094 207.257812 349.847656 C 209.5 340.011719 211.722656 330.261719 215.128906 320.863281 C 217.347656 314.738281 220.070312 308.757812 223.652344 302.996094 C 226.519531 298.363281 229.921875 293.867188 234.054688 289.546875 C 243.132812 280.066406 251.199219 276.113281 252.476562 266.101562 C 254.304688 251.816406 239.425781 247.515625 234.054688 225.90625 C 230.390625 211.132812 226.558594 189.835938 230.277344 175.484375 C 233.785156 161.925781 236.839844 150.160156 247.027344 138.632812 C 249.476562 135.871094 269.589844 116.664062 292.890625 113.507812 C 303.625 112.0625 313.199219 125.8125 326.179688 128.769531 C 341.101562 132.164062 349.644531 134.109375 357.996094 140.492188 C 372.105469 151.269531 376.082031 167.386719 379.769531 182.359375 C 382.65625 194.074219 386.394531 209.222656 381.441406 227.578125 Z M 381.441406 227.578125 " fill-opacity="1" fill-rule="nonzero"/><g clip-path="url(#689e0e524e)"><path fill="#eaeaea" d="M 439.589844 85.109375 C 402.265625 47.78125 352.636719 27.226562 299.851562 27.226562 C 247.0625 27.226562 197.433594 47.78125 160.109375 85.109375 C 122.78125 122.433594 102.226562 172.0625 102.226562 224.851562 C 102.226562 273.03125 119.351562 318.582031 150.730469 354.546875 C 153.726562 357.988281 156.855469 361.335938 160.109375 364.589844 C 165.152344 369.636719 170.429688 374.382812 175.902344 378.796875 C 175.925781 378.820312 175.941406 378.835938 175.964844 378.847656 C 210.964844 407.117188 254.226562 422.476562 299.851562 422.476562 C 352.636719 422.476562 402.265625 401.917969 439.589844 364.589844 C 476.917969 327.265625 497.476562 277.636719 497.476562 224.851562 C 497.476562 172.0625 476.917969 122.433594 439.589844 85.109375 Z M 428.335938 372.921875 C 415.652344 383.953125 401.539062 393.375 386.316406 400.878906 C 380.972656 403.515625 375.496094 405.914062 369.894531 408.0625 C 348.132812 416.414062 324.515625 420.988281 299.851562 420.988281 C 276.046875 420.988281 253.222656 416.722656 232.101562 408.921875 C 223.429688 405.730469 215.050781 401.933594 207.003906 397.585938 C 205.820312 396.945312 204.648438 396.300781 203.480469 395.640625 C 197.34375 392.164062 191.410156 388.367188 185.710938 384.265625 C 172.976562 375.125 161.378906 364.503906 151.183594 352.644531 C 121.609375 318.289062 103.710938 273.625 103.710938 224.851562 C 103.710938 116.699219 191.699219 28.710938 299.851562 28.710938 C 408 28.710938 495.988281 116.699219 495.988281 224.851562 C 495.988281 283.898438 469.761719 336.9375 428.335938 372.921875 Z M 428.335938 372.921875 " fill-opacity="1" fill-rule="nonzero"/></g><g clip-path="url(#c8b01a3f9f)"><g clip-path="url(#6a182b5a02)"><path stroke-linecap="butt" transform="matrix(0.74988, 0, 0, 0.74988, 79.838714, 4.83873)" fill="none" stroke-linejoin="miter" d="M 293.548403 0.0014851 C 131.423544 0.0014851 0.00150624 131.423522 0.00150624 293.548382 C 0.00150624 455.668031 131.423544 587.095278 293.548403 587.095278 C 455.668053 587.095278 587.095299 455.668031 587.095299 293.548382 C 587.095299 131.423522 455.668053 0.0014851 293.548403 0.0014851 " stroke="#eaeaea" stroke-width="50" stroke-opacity="1" stroke-miterlimit="4"/></g></g></svg>